<svg viewBox="0 0 48 48" xml:space="preserve" xmlns="http://www.w3.org/2000/svg"><path clip-rule="evenodd" d="M43 41H5a4 4 0 0 1-4-4V11a4 4 0 0 1 4-4h38a4 4 0 0 1 4 4v26a4 4 0 0 1-4 4zm2-30a2 2 0 0 0-2-2H5a2 2 0 0 0-2 2v26a2 2 0 0 0 2 2h38a2 2 0 0 0 2-2V11zm-3.666 23.715L35 28.381 31.381 32l3.334 3.334a.977.977 0 0 1-1.381 1.381L19 22.381 6.666 34.715a.977.977 0 0 1-1.381-1.381L18.19 20.429c.032-.048.053-.101.095-.144a.97.97 0 0 1 .715-.281.97.97 0 0 1 .715.281c.042.043.062.096.095.144L30 30.619l4.19-4.19c.033-.047.053-.101.095-.144a.975.975 0 0 1 .715-.281.975.975 0 0 1 .715.281c.042.043.062.097.095.144l6.905 6.905a.977.977 0 0 1-1.381 1.381zM29 19a3.995 3.995 0 0 1-1.641-7.64A3.976 3.976 0 0 0 27 13a4 4 0 0 0 4 4c.586 0 1.139-.133 1.641-.359A3.996 3.996 0 0 1 29 19z" fill-rule="evenodd" fill="#ffffff" class="fill-000000"></path></svg>