<?xml version="1.0" ?><svg id="Layer_1_1_" style="enable-background:new 0 0 128 128;" version="1.1" viewBox="0 0 128 128" xml:space="preserve" xmlns="http://www.w3.org/2000/svg" xmlns:xlink="http://www.w3.org/1999/xlink"><g><path d="M111,42V26c0-1.302-0.839-2.402-2-2.816V10c0-4.963-4.037-9-9-9H26c-4.963,0-9,4.037-9,9v108c0,4.963,4.037,9,9,9h74   c4.963,0,9-4.037,9-9v-13.184c1.161-0.414,2-1.514,2-2.816V86c0-1.302-0.839-2.402-2-2.816v-8.369c1.161-0.414,2-1.514,2-2.816V56   c0-1.302-0.839-2.402-2-2.816v-8.369C110.161,44.402,111,43.302,111,42z M99,53v-8h8v8H99z M99,83v-8h8v8H99z M97,109H19v-2h78V109   z M38.274,63.969l-2.194,2.194c-0.391,0.39-1.024,0.392-1.415,0l-2.828-2.828c-0.39-0.391-0.39-1.024,0-1.415l2.194-2.194   C35.301,61.271,36.719,62.694,38.274,63.969z M31.577,52.027l5.806-2.405l-0.766-1.848l-5.788,2.398   c-1.067-2.878-1.679-5.964-1.787-9.172h17.008c0.076,0.916,0.25,1.805,0.521,2.651l-7.955,3.295l0.766,1.848l7.962-3.298   C49.342,49.354,53.364,52,58,52c6.28,0,11.438-4.85,11.949-11h17.007c-0.453,12.992-9.636,24.226-22.291,27.208l-5.332-9.182   C58.249,57.159,56.235,56,54.077,56C50.727,56,48,58.727,48,62.111c0,0.705,0.121,1.399,0.361,2.064l1.296,3.588   C41.445,65.316,34.957,59.508,31.577,52.027z M34.071,20.314l-2.234-2.234c-0.39-0.391-0.39-1.024,0-1.415l2.828-2.828   c0.392-0.392,1.025-0.39,1.415,0l2.234,2.234C36.767,17.346,35.346,18.767,34.071,20.314z M58,11   c7.636,0,14.588,2.972,19.772,7.813L65.741,30.845C63.649,29.074,60.949,28,58,28c-4.636,0-8.658,2.646-10.655,6.504l-15.73-6.515   C36.191,17.978,46.293,11,58,11z M79.383,32.226l5.773-2.391c1.077,2.869,1.709,5.952,1.818,9.166H69.949   c-0.076-0.916-0.25-1.805-0.521-2.651l7.955-3.295l-0.766-1.848l-7.962,3.298c-0.417-0.805-0.919-1.558-1.501-2.245l12.032-12.032   c2.126,2.276,3.888,4.894,5.198,7.761l-5.768,2.389L79.383,32.226z M48,40c0-5.514,4.486-10,10-10s10,4.486,10,10s-4.486,10-10,10   S48,45.514,48,40z M77.686,16.071l2.234-2.234c0.39-0.39,1.023-0.392,1.415,0l2.828,2.828c0.39,0.391,0.39,1.024,0,1.415   l-2.234,2.234C80.654,18.767,79.233,17.346,77.686,16.071z M30.844,29.834l15.728,6.515c-0.271,0.847-0.445,1.735-0.521,2.651   H29.025C29.135,35.786,29.766,32.703,30.844,29.834z M97,105H63v-5h18.136c1.147,0.636,2.463,1,3.864,1c4.411,0,8-3.589,8-8   c0-2.52-1.174-4.768-3-6.235v-11.25l7,5V105z M50.242,63.497C50.082,63.051,50,62.584,50,62.077C50,59.829,51.829,58,54.077,58   c1.448,0,2.799,0.777,3.525,2.029L74.424,89h3.659C77.398,90.178,77,91.542,77,93c0,1.891,0.663,3.629,1.765,5H62.702   L50.242,63.497z M91,93c0,3.309-2.691,6-6,6s-6-2.691-6-6s2.691-6,6-6S91,89.691,91,93z M88,85.589C87.073,85.212,86.061,85,85,85   c-2.021,0-3.864,0.759-5.274,2h-4.15l-9.854-16.97c7.094-1.82,13.129-6.085,17.277-11.758v12.243l5,3.571V85.589z M50.493,70.078   L61,99.175V105H47V88c0-2.757-2.243-5-5-5H19v-4h20.721l3.844-11.533C45.721,68.591,48.042,69.469,50.493,70.078z M42,85   c1.654,0,3,1.346,3,3v17H19V85H42z M109,42c0,0.552-0.448,1-1,1h-9V25h9c0.552,0,1,0.448,1,1V42z M100,3c3.859,0,7,3.141,7,7v13h-8   V11.077C99,7.77,97.391,4.839,94.923,3H100z M26,3h62.923C93.377,3,97,6.623,97,11.077v66.98l-12-8.572v-14.31   c2.554-4.527,4-9.723,4-15.175c0-6.746-2.172-12.99-5.845-18.084l2.422-2.422c1.17-1.17,1.17-3.073,0-4.243l-2.828-2.828   c-1.169-1.169-3.072-1.171-4.243,0l-2.422,2.422C70.99,11.172,64.746,9,58,9s-12.99,2.172-18.084,5.845l-2.422-2.422   c-1.171-1.171-3.074-1.169-4.243,0l-2.828,2.828c-1.17,1.17-1.17,3.073,0,4.243l2.422,2.422C29.172,27.01,27,33.254,27,40   c0,6.73,2.121,13.005,5.8,18.129l-2.377,2.377c-1.17,1.17-1.17,3.073,0,4.243l2.828,2.828c0.585,0.585,1.354,0.878,2.122,0.878   c0.768,0,1.536-0.293,2.121-0.878l2.383-2.383c0.621,0.444,1.26,0.866,1.916,1.265L38.279,77H19V10C19,6.141,22.141,3,26,3z    M26,125c-3.859,0-7-3.141-7-7v-7h78v5.923c0,4.454-3.623,8.077-8.077,8.077H26z M100,125h-5.077   c2.468-1.839,4.077-4.77,4.077-8.077V105h8v13C107,121.859,103.859,125,100,125z M109,102c0,0.552-0.448,1-1,1h-9V85h9   c0.552,0,1,0.448,1,1V102z M109,72c0,0.552-0.448,1-1,1h-9V55h9c0.552,0,1,0.448,1,1V72z"/><path d="M104,31c-1.654,0-3,1.346-3,3s1.346,3,3,3s3-1.346,3-3S105.654,31,104,31z M104,35c-0.552,0-1-0.448-1-1s0.448-1,1-1   s1,0.448,1,1S104.552,35,104,35z"/><path d="M104,61c-1.654,0-3,1.346-3,3s1.346,3,3,3s3-1.346,3-3S105.654,61,104,61z M104,65c-0.552,0-1-0.448-1-1s0.448-1,1-1   s1,0.448,1,1S104.552,65,104,65z"/><path d="M104,91c-1.654,0-3,1.346-3,3s1.346,3,3,3s3-1.346,3-3S105.654,91,104,91z M104,95c-0.552,0-1-0.448-1-1s0.448-1,1-1   s1,0.448,1,1S104.552,95,104,95z"/><path d="M82,93c0,1.654,1.346,3,3,3s3-1.346,3-3s-1.346-3-3-3S82,91.346,82,93z M86,93c0,0.552-0.448,1-1,1s-1-0.448-1-1   s0.448-1,1-1S86,92.448,86,93z"/><path d="M67,92c1.654,0,3-1.346,3-3s-1.346-3-3-3s-3,1.346-3,3S65.346,92,67,92z M67,88c0.552,0,1,0.448,1,1s-0.448,1-1,1   s-1-0.448-1-1S66.448,88,67,88z"/><path d="M88,64c0,1.654,1.346,3,3,3s3-1.346,3-3s-1.346-3-3-3S88,62.346,88,64z M92,64c0,0.552-0.448,1-1,1s-1-0.448-1-1   s0.448-1,1-1S92,63.448,92,64z"/><path d="M58,45c2.757,0,5-2.243,5-5s-2.243-5-5-5s-5,2.243-5,5S55.243,45,58,45z M58,37c1.654,0,3,1.346,3,3s-1.346,3-3,3   s-3-1.346-3-3S56.346,37,58,37z"/><path d="M26,115c-1.654,0-3,1.346-3,3s1.346,3,3,3s3-1.346,3-3S27.654,115,26,115z M26,119c-0.552,0-1-0.448-1-1s0.448-1,1-1   s1,0.448,1,1S26.552,119,26,119z"/><path d="M26,72c0,1.654,1.346,3,3,3s3-1.346,3-3s-1.346-3-3-3S26,70.346,26,72z M29,71c0.552,0,1,0.448,1,1s-0.448,1-1,1   s-1-0.448-1-1S28.448,71,29,71z"/><path d="M90,115c-1.654,0-3,1.346-3,3s1.346,3,3,3s3-1.346,3-3S91.654,115,90,115z M90,119c-0.552,0-1-0.448-1-1s0.448-1,1-1   s1,0.448,1,1S90.552,119,90,119z"/><path d="M26,13c1.654,0,3-1.346,3-3s-1.346-3-3-3s-3,1.346-3,3S24.346,13,26,13z M26,9c0.552,0,1,0.448,1,1s-0.448,1-1,1   s-1-0.448-1-1S25.448,9,26,9z"/><path d="M90,13c1.654,0,3-1.346,3-3s-1.346-3-3-3s-3,1.346-3,3S88.346,13,90,13z M90,9c0.552,0,1,0.448,1,1s-0.448,1-1,1   s-1-0.448-1-1S89.448,9,90,9z"/><rect height="2" width="22" x="21" y="88"/><rect height="2" width="10" x="21" y="92"/><rect height="2" width="10" x="33" y="92"/><rect height="2" width="22" x="21" y="96"/><rect height="2" width="10" x="21" y="100"/><rect height="2" width="10" x="33" y="100"/></g></svg>