<svg width="512" height="512" xmlns="http://www.w3.org/2000/svg">

 <g>
  <title>background</title>
  <rect fill="none" id="canvas_background" height="402" width="582" y="-1" x="-1"/>
 </g>
 <g>
  <title>Layer 1</title>
  <path id="svg_2" stroke-width="15" stroke-miterlimit="10" stroke="#000000" fill="none" d="m438.3,176.033333c0,0 -3.6,-27.4 -14.8,-39.4c-14.2,-15.8 -30,-15.9 -37.3,-16.8c-52.1,-4 -130.2,-4 -130.2,-4l-0.2,0c0,0 -78.1,0 -130.2,4c-7.3,0.9 -23.1,1 -37.3,16.8c-11.1,12.1 -14.8,39.4 -14.8,39.4s-3.5,32.1 -3.5,64.2l0,30.1c0,32.1 3.7,64.2 3.7,64.2s3.6,27.4 14.8,39.4c14.2,15.8 32.7,15.3 41,17c29.8,3 126.5,4 126.5,4s78.2,-0.1 130.3,-4.1c7.3,-0.9 23.1,-1 37.3,-16.8c11.1,-12 14.8,-39.4 14.8,-39.4s3.7,-32.1 3.7,-64.2l0,-30.1c-0.1,-32.2 -3.8,-64.3 -3.8,-64.3z"/>
  <polygon id="svg_3" stroke-width="15" stroke-miterlimit="10" stroke="#000000" points="209.5,186.2 209.5,325.8 325.8,256  " fill="none"/>
 </g>
</svg>