<?xml version="1.0" standalone="no"?>
<!DOCTYPE svg PUBLIC "-//W3C//DTD SVG 20010904//EN"
 "http://www.w3.org/TR/2001/REC-SVG-20010904/DTD/svg10.dtd">
<svg version="1.0" xmlns="http://www.w3.org/2000/svg"
 width="1280.000000pt" height="1280.000000pt" viewBox="0 0 1280.000000 1280.000000"
 preserveAspectRatio="xMidYMid meet">
<metadata>
Created by potrace 1.15, written by Peter Selinger 2001-2017
</metadata>
<g transform="translate(0.000000,1280.000000) scale(0.100000,-0.100000)"
fill="#000000" stroke="none">
<path d="M2057 12209 c-575 -56 -1027 -512 -1086 -1098 -8 -70 -12 -1468 -13
-4355 l-3 -4251 -4 4105 c-3 3657 -5 4090 -18 3965 -13 -119 -15 -718 -18
-4025 -1 -2137 1 -3973 5 -4080 11 -278 42 -476 102 -648 64 -187 156 -339
287 -476 206 -214 498 -356 819 -397 48 -6 98 -12 112 -15 94 -16 727 -19
4160 -19 3433 0 4066 3 4160 19 14 3 64 9 112 15 237 31 490 129 663 259 276
206 448 504 510 885 20 125 28 211 35 377 4 107 6 1943 5 4080 -3 3307 -5
3906 -18 4025 -13 125 -15 -308 -18 -3965 l-4 -4105 -3 4251 c-1 2887 -5 4285
-13 4355 -60 595 -510 1042 -1104 1099 -135 12 -8535 12 -8668 -1z m-1090
-9791 c-3 -8 -6 -5 -6 6 -1 11 2 17 5 13 3 -3 4 -12 1 -19z m10870 0 c-3 -8
-6 -5 -6 6 -1 11 2 17 5 13 3 -3 4 -12 1 -19z"/>
</g>
</svg>
