<svg xmlns="http://www.w3.org/2000/svg" viewBox="0 0 1877.85 965.42"><defs><style>.cls-1{fill:#3e3e3e;}.cls-2{fill:#fcefcb;}</style></defs><g id="Capa_2" data-name="Capa 2"><g id="Capa_1-2" data-name="Capa 1"><path class="cls-1" d="M1873.22,388.29l-.09-.4a158.18,158.18,0,0,0-9-26.39l-.25-.57c-1.09-2.43-2.26-4.87-3.61-7.51l-.77-1.51c-1.25-2.39-2.54-4.71-3.88-7l-.57-1-.25-.39a173.06,173.06,0,0,0-21.35-28.36l-.06-.07-.21-.23c-1.79-1.92-3.65-3.81-5.54-5.68l-1.34-1.33c-1.78-1.72-3.62-3.45-5.51-5.14l-1.29-1.15-.24-.2c-1.9-1.67-3.84-3.34-5.82-5l-.77-.61a223.17,223.17,0,0,0-20.52-14.72l-.24-.16-1.17-.76c-2-1.22-4-2.41-5.94-3.58l-.63-.37c-.67-.39-1.32-.78-2-1.16-1.88-1.08-3.79-2.13-5.7-3.16-1-.53-2-1.08-3.08-1.62-1.81-1-3.68-1.91-5.56-2.84l-2.41-1.15-.85-.41-.7-.32c-1.64-.79-3.3-1.57-5-2.32l-1.23-.53-.58-.25c-3.75-1.64-7.64-3.24-11.6-4.78l-1.06-.41-3.1-1.19c-1.46-.54-2.92-1-4.4-1.57l-.51-.18c-1.53-.53-3.06-1.06-4.6-1.57s-3.14-1-4.72-1.52-3.27-1-4.92-1.5-3-.88-4.49-1.3c-1.85-.52-3.68-1-5.52-1.47l-1.27-.34c-.89-.23-1.77-.46-2.65-.67q-4.54-1.12-9.06-2.09l-1.47-.3-.85-.17c-2.53-.52-5-1-7.45-1.44l-2.29-.4-1.2-.19c-2.09-.35-4.1-.68-6.12-1-1.21-.18-2.44-.34-3.67-.51-2-.27-4-.51-6-.74-1.19-.14-2.39-.28-3.58-.4q-3.17-.31-6.34-.57l-1-.09-1.94-.16c-3.08-.21-6.16-.38-9.19-.5-4.25-.16-8.6-.23-12.93-.23-80.37,0-158.33,26.6-233.73,52.33q-16,5.46-31.76,10.76c-16.64,5.55-33.62,11.86-51.49,19.14l-7.29-27.09-1.5-5.57-1.49-5.59-1.51-5.66L1288,207.28l-1.48-5.56-1.49-5.61-1.61-5.8-17.5-65a17.12,17.12,0,0,0-1.37-3.52c-2-3.73-4-7.45-6-11.23-4.63-8.5-9.39-17.09-14.15-25.62-1-1.79-2-3.67-3.1-5.51l-.47-.83c-2.71-4.91-5.43-9.81-8.09-14.72a96.35,96.35,0,0,0-8.47-13l-.23-.3-.51-.64c-.72-.9-1.44-1.78-2.18-2.59-.88-1-1.82-2-2.78-2.93a57.78,57.78,0,0,0-7.79-6.83c-13.82-10.41-30-13.9-48.62-18-15.11-3.25-29-3.69-40.68-3.69-4.33,0-8.67.07-13,.14s-8.57.14-12.94.14c-4.7,0-8.85-.08-12.68-.26-11.46-.51-22.92-3.78-35-7.25-14-4-28.36-8.11-44.41-8.61C1002.17,0,1001,0,999.83,0h0c-25.65,0-49.57,8.54-72.71,16.8C916.29,20.67,906.06,24.32,896,27a113,113,0,0,1-29.31,3.42c-9.48,0-19-.78-29.07-1.61C827.1,27.92,816.19,27,804.83,27c-4.71,0-9.11.15-13.44.46-37.93,2.76-76.79,20.1-111.06,35.42L675.66,65c-15.31,6.86-31.24,10.89-48.11,15.15-6.26,1.6-12.73,3.24-19.16,5a220.77,220.77,0,0,0-32,11.13l-.21.09c-.62.24-1.25.49-1.84.76-2.42,1.11-4.58,2.19-6.58,3.32s-4,2.29-5.57,3.29l-1,.69-.18.1-1.05.71-.52.38c-1.22.89-2.41,1.75-3.54,2.64-1.93,1.48-3.51,2.91-4.92,4.19-.8.73-1.52,1.43-2.29,2.21a77.56,77.56,0,0,0-6.45,7l-.49.61c-.81,1-1.58,1.93-2.32,3q-2.58,3.48-4.84,7.24c-1.54,2.38-2.77,4.69-3.86,6.74a106.44,106.44,0,0,0-6.54,15.27,168.21,168.21,0,0,0-7.61,31.76c-.23,1.56-.39,3.08-.55,4.62l-.07.49c-.1.55-.18,1.09-.24,1.65l-.15,1.68c-.29,2.44-.54,4.92-.76,7.41l-.06.75-.09,1.25c-.05.68-.09,1.38-.14,2.09-.17,2.44-.34,4.89-.47,7.4l-.17,4.62c-.12,2.12-.19,4.25-.25,6.32-.06,3.94-.12,7.66-.12,11.34v.74c0,2,0,4,.06,6s0,3.87.06,5.83.06,4,.12,6c0,1.47.07,3.19.12,4.92,0,1.57.07,3.16.11,4.7v.42c0,1.19.1,2.35.1,3.55v.57c.05,1.6.11,3.19.11,4.73v.56c.05,1.65.11,3.25.11,4.86v.45c.05,2.11.11,4.2.11,6.18v.36c.12,5.7.09,10.61,0,15-.25,8.18-.25,16.38,0,24.42,0,1.92,0,3.9.12,6s.07,4,.19,6v.17c.05,1.88.12,3.81.23,5.69.24,5.72.52,11.43.88,17.09.23,4.13.48,8.36.73,12.57.41,6.82.82,13.63,1.16,20.41-30.36,1.73-60.76,6-86,9.59l-1.23.17c-82.68,11.67-151.43,25-210.14,40.79C132,467.45,24.22,559,4.59,657.41c-13,65,1.71,128.2,42.45,182.66,50.52,67.52,137.65,114.57,227.63,123l.51.07a328.54,328.54,0,0,0,38.88,2.3c88.58,0,165.17-35,206.32-53.77,5.65-2.58,10.66-4.87,15-6.73,51.89-22.42,102.76-48.14,151.94-73,28.05-14.18,57-28.84,85.63-42.59l.79-.38c64.66-31.12,127.11-65.25,187.51-98.25,45.85-25.07,93.26-51,140.65-75q14.13-7.14,28.57-14.54l6.7-3.42c101.41,27.33,204.65,42.36,324.25,47.21,12.72.51,25.7.77,38.54.77,105.46,0,353.22-18.77,376.23-192.63A176.76,176.76,0,0,0,1873.22,388.29Z"/><path class="cls-2" d="M592.36,414.29c-45.74-10.49-113.11-.79-159.53,5.76C364,429.77,291.45,442.5,224.76,460.42c-86,23.12-185.54,111.78-203.21,200.37-41.38,207.49,230.4,348.39,396.33,259C473.13,890,527.21,858.42,579,822.16c48.87-34.26,100.37-65.54,137.48-113.63,36.34-47,82.62-144.32,58.53-205.82Z"/><path class="cls-1" d="M546.68,438l-10.48.73c-6.64.48-16.13,1.17-27.53,2.19s-24.71,2.25-39,3.7-29.38,3.39-44.57,5.11c-7.59.86-15.12,2.11-22.57,3.12S387.79,455,380.7,456l-38.55,6.9c-11.18,2.47-20.47,4.73-27,6.22l-10.25,2.39,10-3.1c6.42-1.95,15.55-4.87,26.59-8.14l38.12-9.64L401.32,446c7.39-1.55,14.88-3.34,22.41-4.75,15.09-2.8,30.15-6,44.34-8.28s27.45-4.75,38.83-6.47,20.91-3.21,27.58-4.18l10.45-1.48A8.66,8.66,0,1,1,547.35,438l-.58.06Z"/><path class="cls-1" d="M548.17,833.14q-23.05,9.92-46.42,19.48C343,917.22,80.36,828.17,120,678.3c16.91-64,117.18-132.86,197.05-157.44,72-22.15,185.39-34.49,251.26-41.5,44.42-4.73,56.65.6,100.41,8.18l123.92,45.3a106.55,106.55,0,0,0-2.15-15.6L657.46,465C611,456.31,598,450.2,550.85,455.61c-70,8-190.38,22.1-266.8,47.39C199.22,531.07,92.74,609.71,74.8,682.79c-42,171.13,236.86,272.82,405.41,199q24.41-10.67,48.47-21.79,25.92-15.93,51.2-33.07C569.84,829.36,559.23,831.41,548.17,833.14Z"/><path class="cls-1" d="M257.07,680.09c11-49.51,87.18-102.05,146.59-120.93,53.53-17,137.91-26.49,186.9-31.88,33-3.64,42.14.47,74.69,6.27L779.52,576.7c-.3-.72-.5-1.48-.85-2.19L635.32,519.17c-35.9-6.56-45.94-11.2-82.39-7.1-54,6.09-147.12,16.79-206.18,36-65.53,21.3-149.59,80.58-161.7,136.44C156.77,815,394.91,856.92,548.17,833.14q26.69-11.52,52.78-23.82C463.18,835.48,230.51,799.9,257.07,680.09Z"/><path class="cls-1" d="M733.61,699.26c-20,3.35-38.38,5.67-49.82,5.91-168.41,3.32-335.72,3.33-313.74-68.66,7.94-26,63.08-53.62,106.08-63.55,38.74-8.94,99.78-13.91,135.24-16.75a159.46,159.46,0,0,1,23.79-.46l-8-2.86c-23.55-4-30.14-6.78-54-4.29-35.46,3.69-96.51,10.17-135.25,21.8-43,12.91-98.13,48.87-106.07,82.73-22,93.71,145.33,93.69,313.73,89.36,11-.29,28.41-3.1,47.41-7.18A248.87,248.87,0,0,0,724.67,711c.66-.82,1.35-1.61,2-2.45C729,705.63,731.28,702.52,733.61,699.26Z"/><path class="cls-2" d="M627.35,556.21c-35.46,2.84-96.5,7.81-135.24,16.75-43,9.93-98.14,37.54-106.08,63.55-22,72,145.34,72,313.75,68.66,11.44-.24,29.85-2.56,49.82-5.91,18.15-25.38,127.89-57.17,139.37-93.73-29.81-2.3-147-10-151.79-19.08l-86-30.7A159.59,159.59,0,0,0,627.35,556.21Z"/><path class="cls-2" d="M1324.2,408c-16.72,16-55.58,20.47-77.55,31.71-7.5,3.82-14.88,7.79-22.26,12-2.54,1.39-5.08,2.77-7.55,4.21-3.76,2.14-7.5,4.27-11.19,6.52q-11.16,6.57-22.2,13.49c-3.63,2.25-7.32,4.5-11,6.81-3.45,2.18-6.92,4.38-10.38,6.63-4.66,3-9.34,6-14,9.05-7.55,4.84-15.1,9.79-22.66,14.71-3.35,2.19-6.63,4.38-10,6.51C1052,561.11,987.8,601.7,916.18,622.52c-35.11,10.2-68.1,7.62-103.79,6.41-25.25-.88-47.86,5.47-72,5.41-26.18,0-54.85,3.34-80.67,1.5-24.28-1.73-47.75-9.93-70.7-12.69-24-2.88-50.57,14.48-73.52,5.14-21.68-8.77-39-35.87-64.35-27.34,11.65-15,34.59-18.33,48.78-31.37a67.29,67.29,0,0,0,11.19-13.25c1.27-2,2.36-3.93,3.46-5.94.51-1.1,1.09-2.26,1.61-3.35,4-8.65,6.57-17.88,9.18-27.68.51-2,1-3.92,1.54-5.88l.07-.23c.51-1.84,1-3.64,1.38-5.48s1-3.92,1.39-5.89c.63-2.87,1.2-5.76,1.73-8.65.45-2.7.91-5.35,1.32-8,.06-.64.17-1.21.29-1.85q1.13-7.51,1.73-14.93a14.25,14.25,0,0,1,.18-1.57c.68-7.72,1-15.5,1.21-23.23v-.76c0-1.37,0-2.82,0-4.2,0-2,0-3.92,0-5.89,0-2.76,0-5.46-.1-8.24,0-1.9-.07-3.86-.12-5.76s-.11-3.87-.18-5.77c0-.92,0-1.85-.12-2.76-.16-4.85-.39-9.64-.68-14.48-.58-12.17-1.39-24.39-2.09-36.67-.33-5.6-.63-11.24-.86-16.9-.1-1.9-.17-3.87-.23-5.77s-.17-3.8-.17-5.77-.11-3.79-.11-5.76c-.24-7.84-.24-15.68,0-23.59.17-5,.17-10.37.06-16,0-2.13-.06-4.38-.12-6.63,0-1.78-.06-3.58-.11-5.42s-.07-3.52-.12-5.3c0-1.44-.05-2.83-.12-4.27-.06-3.23-.17-6.57-.23-9.86-.06-1.9-.11-3.81-.11-5.71s-.06-3.86-.06-5.82-.06-3.87-.06-5.77v-.74c0-3.58.06-7.22.12-10.84,0-2,.11-4,.23-6,0-1.56.11-3.11.18-4.61.1-2.42.28-4.79.45-7.15.06-1.21.17-2.36.23-3.52.24-2.42.47-4.84.75-7.2.06-.64.12-1.27.17-1.85H533c.23-2,.4-3.92.7-5.87a150,150,0,0,1,6.86-28.73,86.35,86.35,0,0,1,5.42-12.68c1-2,2.08-3.93,3.29-5.77a67.93,67.93,0,0,1,4.15-6.22c.69-1,1.43-1.85,2.18-2.78a59.07,59.07,0,0,1,5.14-5.53c.63-.63,1.2-1.21,1.84-1.79,1.27-1.15,2.54-2.31,3.93-3.34,1.15-.92,2.35-1.79,3.63-2.72l1.38-.91c1.44-.93,2.94-1.85,4.5-2.66,1.72-1,3.58-1.89,5.48-2.77.63-.28,1.32-.51,2-.8a206.76,206.76,0,0,1,29.64-10.27c23.12-6.46,46.87-10.84,69.65-21,33.39-14.89,73.35-33.39,109.91-36,37.31-2.66,71,8.65,107.83-1,33.32-8.82,67.41-27.45,102.35-26.36,27.44.87,51.9,14.65,79.23,15.86,26.76,1.21,50.46-2.3,76.41,3.29,17.81,3.87,31.13,6.74,42.09,15a40.58,40.58,0,0,1,5.64,5l.07.06c.75.75,1.49,1.5,2.19,2.31s1.44,1.73,2.19,2.65a79.26,79.26,0,0,1,6.92,10.66c2.88,5.31,5.83,10.62,8.76,15.92,1,1.74,2,3.52,3,5.31,4.73,8.47,9.46,17,14.07,25.49,2,3.68,4,7.31,5.88,10.95L1266.77,195l1.56,5.59,1.5,5.65,1.49,5.6,18.4,68.21,1.5,5.6,1.5,5.65,1.5,5.59,18.34,68,1.49,5.6,1.56,5.59,1.45,5.59Z"/><path class="cls-1" d="M1226.29,88c-56.9,9.64-113.88,16.6-174,19.84-84.94,4.56-170.22,16.73-255.27,17.35-66.26.47-130.84,9.87-196.3,19.09-17.41,2.42-37.36,6.52-57.77,9.57.93-2.25,2-4.44,3-6.51a86.35,86.35,0,0,0-5.42,12.68l3.22-.46c10-1.49,19.9-3.23,29.41-4.9,10-1.78,19.56-3.46,28.31-4.67l5.71-.81c64.76-9.17,125.94-17.76,189.89-18.22,51.5-.35,103.79-5,154.42-9.58,33.16-2.94,67.46-6,101.14-7.83,56.17-3,113.31-9.52,174.67-19.9l2-.34C1228.31,91.56,1227.33,89.78,1226.29,88ZM797,90.29c85-.63,170.33-12.86,255.27-17.36a1510.89,1510.89,0,0,0,153.89-16.49,40.58,40.58,0,0,0-5.64-5A1492.06,1492.06,0,0,1,1052,67.17C1018.13,69,983.7,72,950.43,75,900,79.51,848,84.18,796.93,84.52c-62.1.47-124,8.83-183.88,17.3a206.76,206.76,0,0,0-29.64,10.27c5.94-1,11.76-2,17.29-2.77C666.16,100.15,730.74,90.76,797,90.29Z"/><path class="cls-1" d="M1289.72,280c-85.34,13-157.07,19.09-229.61,19.84-33.85.28-68.39,1.84-101.73,3.34l.25,5.77c33.32-1.5,67.75-3.06,101.54-3.35,73.87-.75,144.9-6.86,230.42-19.89l.63-.11ZM531.63,324.92c-.17-7.78-.17-15.68,0-23.59C531.39,309.24,531.39,317.08,531.63,324.92Zm426.59-21.74c-37.59,1.73-76.17,3.46-114.4,3.46-13.09,0-26.12-.16-39.1-.69q-14.52-.52-29.07-.52c-55.12,0-110,5.3-163.41,10.44l-5.65.57c-9.11.88-18.74,2.14-29,3.47-14.92,2-30.61,4-46,5,0,2,0,3.87.11,5.76h.3c15.56-1,31.19-3.05,46.35-5.07,10.15-1.32,19.72-2.59,28.77-3.46l5.66-.51c53-5.14,107.88-10.45,162.83-10.45,9.86,0,19.56.18,28.84.52,12.51.46,25.36.7,39.33.7,38.28,0,77-1.73,114.4-3.46l.16-5.77Zm311.61-97c-75.66,10.79-142.31,16.1-209.61,16.72-33.74.35-68.15,1.91-101.49,3.4-37.53,1.68-76.4,3.47-115,3.47-14,0-26.86-.24-39.43-.69-9.58-.35-19.44-.53-29.42-.53-53.67,0-106,5-161.33,10.39l-5.89.51c-8.93.86-18.45,2.14-28.54,3.46-14.93,2-31.76,4.21-48.26,5.25,0,1.9,0,3.81.11,5.71,16.49-1,33.1-3.17,48.9-5.24,10-1.33,19.55-2.55,28.37-3.41l5.66-.58c55.06-5.31,107.48-10.32,161-10.32,9.7,0,19.38.12,29.19.53q19.8.67,39.66.68c38.64,0,77.45-1.79,115.28-3.46,33.21-1.49,67.64-3.05,101.25-3.4,67.35-.63,134-5.88,211-16.89Z"/><path class="cls-1" d="M1243.36,118.84c-66.14,11.7-127.66,19-188.09,22.25-33.85,1.79-68.28,4.85-101.55,7.84-50.4,4.5-102.47,9.18-153.5,9.52-64.7.46-129.11,9.51-191.38,18.34l-5.65.8c-9,1.21-18.57,2.94-28.67,4.68-13.31,2.36-27,4.78-40.87,6.52-.3,2-.47,3.91-.7,5.87,24.92-3,49.89-8.42,71-11.36,65.46-9.23,130-18.62,196.28-19.09,85.06-.63,170.35-12.8,255.28-17.35,66-3.58,128.18-11.54,190.64-22.66,1,1.84,2.07,3.75,3,5.59C1247.34,126.15,1245.38,122.52,1243.36,118.84ZM958.22,214.79c-37.59,1.72-76.17,3.45-114.4,3.45q-19.64,0-39.1-.69Q790.2,217,775.65,217c-55.12,0-110,5.31-163.41,10.44l-5.65.52c-9.11.87-18.74,2.14-29,3.52-15.22,2-31.14,4.1-46.88,5.07,0,1.9,0,3.87.06,5.77h.34c16-1,32.59-3.24,47.23-5.14,10.15-1.32,19.72-2.59,28.77-3.46l5.66-.57c53-5.08,107.88-10.38,162.83-10.38,9.86,0,19.56.17,28.84.52,12.51.46,25.36.68,39.33.68,38.28,0,77-1.78,114.4-3.45l.16-5.76ZM532.89,194.66c0,.58-.11,1.21-.17,1.85.06-.64.12-1.27.23-1.85Zm733.88.29c-75.42,10.72-140.7,15.8-206.66,16.43-33.85.35-68.39,1.91-101.73,3.41l.25,5.76c33.32-1.5,67.75-3.06,101.54-3.4,66.72-.64,132.62-5.88,207.4-16.49l.76-.12Z"/><path class="cls-1" d="M800,565.77c-66.23-1.47-131.06,6-196.78,13.31-38.9,4.33-90.82,16.55-131.73,7-7.82,3.9-15.18,8.23-20.34,14.83,25.4-8.53,42.68,18.54,64.37,27.34,22.94,9.32,49.56-8,73.52-5.15,23,2.76,46.42,11,70.67,12.69,25.87,1.84,54.51-1.49,80.7-1.47,24.14,0,46.76-6.31,72-5.44,35.74,1.21,68.68,3.79,103.83-6.41,50.41-14.64,97.12-39.12,142.52-66.79-1,0-2,.11-3.07.13C970.61,557.93,885,567.65,800,565.77Z"/><path class="cls-1" d="M1292.72,291.25c-86.26,13.2-158,19.37-232.5,20.12-33.74.29-68.15,1.85-101.49,3.34-37.53,1.73-76.4,3.47-115,3.47-14,0-26.86-.24-39.43-.7-9.58-.34-19.44-.52-29.42-.52-53.67,0-106,5-161.33,10.39l-5.89.57c-8.93.87-18.45,2.08-28.54,3.4-13.73,1.84-30.8,4.09-47.23,5.13.06,1.9.13,3.87.23,5.77,16.15-1,32.29-3.12,47.75-5.13,10-1.32,19.55-2.59,28.37-3.46l5.66-.52c55.06-5.31,107.48-10.38,161-10.38,9.7,0,19.38.17,29.19.52q19.8.69,39.66.69c38.64,0,77.45-1.73,115.28-3.46,33.21-1.5,67.64-3.06,101.25-3.34,73.93-.75,147-7,233.94-20.3ZM958.22,391.64c-37.59,1.67-76.17,3.4-114.4,3.4-13.09,0-26.12-.17-39.1-.63-9.68-.41-19.38-.53-29.07-.53-55.12,0-110,5.25-163.41,10.39l-5.65.57c-9.11.87-18.74,2.14-29,3.46-13.55,1.79-27.67,3.64-41.75,4.73.07,1.9.12,3.86.18,5.77h.28c14.53-1.16,29.13-3.06,42-4.73,10.15-1.39,19.72-2.6,28.77-3.52l5.66-.51c53-5.15,107.88-10.39,162.83-10.39,9.86,0,19.56.18,28.84.46,12.51.46,25.36.69,39.33.69,38.28,0,77-1.72,114.4-3.4l.16-5.76Zm354.34-26.82C1217,380.34,1139,387.48,1060.11,388.24c-33.85.28-68.39,1.9-101.73,3.4l.3,5.7c33.27-1.49,67.7-3,101.49-3.34,79.75-.75,157.88-8,253.3-23.46l.58-.12Z"/><path class="cls-1" d="M958.22,480c-37.59,1.68-76.17,3.46-114.4,3.46q-19.64,0-39.1-.69-14.52-.51-29.07-.52c-55.12,0-110,5.25-163.41,10.44l-5.65.51c-9.11.88-18.74,2.14-29,3.53-15.57,2-31.89,4.14-47.91,5.12-.41,2-.87,3.92-1.39,5.89l1.73-.11c16.43-1,33.38-3.23,48.32-5.2,10.15-1.32,19.72-2.58,28.77-3.45l5.66-.58c53-5.08,107.88-10.38,162.83-10.38,9.86,0,19.56.18,28.84.52,12.51.46,25.36.69,39.33.69,38.28,0,77-1.79,114.4-3.46l.16-5.77Zm371.57-73.51-7.14-26.41-1.39-5-5.13.86-.52.06c-96.24,15.63-175.06,22.95-255.39,23.76-33.74.29-68.15,1.84-101.49,3.34-37.53,1.73-76.4,3.46-115,3.46-14,0-26.86-.23-39.43-.69-9.58-.34-19.44-.52-29.42-.52-53.67,0-106,5.07-161.33,10.38l-5.89.58c-8.93.86-18.45,2.13-28.54,3.46-13.73,1.78-28.31,3.63-42.95,4.78,0,2.78.1,5.48.1,8.24v-2.47c14.71-1.15,29.48-3,43.6-4.85,10-1.32,19.55-2.59,28.37-3.45l5.66-.52c55.06-5.31,107.48-10.39,161-10.39,9.7,0,19.38.18,29.19.52,13.2.53,26.41.7,39.66.7,38.64,0,77.45-1.73,115.28-3.46,33.21-1.5,67.64-3.06,101.25-3.34,80.27-.81,159.56-8.08,256.78-23.94L1324.2,408c-16.72,16-55.58,20.47-77.55,31.71-7.5,3.82-14.88,7.79-22.26,12-2.54,1.39-5.08,2.77-7.55,4.21-3.76,2.14-7.5,4.27-11.19,6.52s-7.38,4.32-11.08,6.57c-46.65,4.78-90.41,7.21-134.46,7.61-33.85.35-68.39,1.91-101.73,3.4l.3,5.77c33.27-1.5,67.7-3.05,101.49-3.41,40.7-.34,81.19-2.53,123.28-6.45,3.92-.34,7.84-.74,11.77-1.15l1.26-.12,1.1-.69c18.79-11.42,35.74-20.93,51.72-29.11,8.19-4.22,19-7.44,30.5-10.91,18.33-5.41,37.31-11.07,48.38-21.73l2.48-2.37Z"/><path class="cls-1" d="M1172.49,482.75l-10.84.86c-34.48,2.76-67.7,4.27-101.43,4.55s-68.15,1.91-101.49,3.41c-37.53,1.66-76.4,3.45-115,3.45-14,0-26.86-.23-39.43-.68-9.58-.35-19.44-.58-29.42-.58-53.67,0-106,5.07-161.33,10.37l-5.89.58c-8.93.87-18.45,2.14-28.54,3.47-17.76,2.36-35.17,4.49-52.25,5.3-.51,2-1,3.92-1.54,5.88,18.33-.8,36.9-3.17,54.54-5.48,10-1.33,19.55-2.59,28.37-3.4l5.66-.58c55.06-5.3,107.48-10.38,161-10.38,9.7,0,19.38.18,29.19.59q19.8.66,39.66.68c38.64,0,77.45-1.78,115.28-3.46,33.21-1.5,67.64-3.06,101.25-3.4s67.12-1.79,101.83-4.55c-4.66,3-9.34,6-14,9.05-7.55,4.84-15.1,9.79-22.66,14.71-23.64,1.77-47.51,3.05-71.9,3.68C975.86,518.67,897.73,527,820.06,527c-7.44,0-14.83-.11-22.26-.29q-8.47-.16-17-.17c-60.37,0-119.71,6.86-179.79,13.5-25.55,2.88-56.56,9-86.49,10.38-1.1,2-2.19,4-3.46,5.94l3.69-.18c19.72-.87,39.44-3.75,58.52-6.58,10-1.44,19.56-2.82,28.37-3.8l5.78-.64c59.27-6.63,115.26-12.86,173.38-12.86,5.6,0,11.2.07,16.84.18,7.21.17,14.77.28,22.38.28,44.06,0,88.85-2.71,132.21-5.29,33.27-2,67.7-4,101.37-4.86,19.91-.51,40.26-1.44,61.83-2.93,3.4-.23,6.85-.46,10.37-.74l1.5-.13,1.27-.8c11.24-7.39,24-15.69,36.61-23.77l19.39-12.44Z"/><path class="cls-1" d="M579.59,137c-1,3.7-1.79,7.44-2.69,11.16,4.54-.81,9-1.58,13.38-2.29a374.39,374.39,0,0,1,9.45-36.42c-3.51.51-7.26,1.14-11,1.75A172.68,172.68,0,0,0,579.59,137Z"/><path class="cls-1" d="M887.09,86.12c-30,2.25-60.09,3.95-90.09,4.17-15.93.11-31.75.76-47.52,1.77-1.85,11.76-4,23.43-5.07,35.3,17.45-1.22,35-2,52.59-2.13,28.93-.21,57.9-1.81,86.87-4Q885.26,103.69,887.09,86.12Z"/><path class="cls-1" d="M1027.45,109.49c8.28-.57,16.57-1.19,24.83-1.63,5.65-.31,11.24-.68,16.82-1-.67-5.31-1.41-10.61-2.34-15.87-1.11-6.25-2.28-12.51-3.29-18.79-3.75.23-7.42.55-11.19.76-9.39.5-18.79,1.19-28.19,1.85C1024.66,86.34,1025.94,97.91,1027.45,109.49Z"/><path class="cls-1" d="M556.89,322.37v.16c7-.83,14-1.73,20.74-2.62h.06c.24-23.54.45-47.36,1.35-71.14-6.41.84-13,1.69-19.57,2.46A589,589,0,0,0,556.89,322.37Z"/><path class="cls-1" d="M885.77,306c-1.65-23.65-3.48-47.29-4.48-71-25.76.62-51.61.74-77.21-.21-20.64-.76-41-.58-61.38.12.78,23.67,2.07,47.36,3,71.06,19.64-.62,39.34-.77,59.05-.05C831.51,307,858.68,306.75,885.77,306Z"/><path class="cls-1" d="M1260.46,213.27c-4.48.62-9,1.27-13.44,1.84.24,1.56.52,3.12.76,4.68,3.39,21.57,6.51,43.22,9.77,64.85l11.79-1.65Q1264.9,248.13,1260.46,213.27Z"/><path class="cls-1" d="M1044.72,300.09c5.14-.11,10.29-.23,15.41-.28q14.77-.15,29.59-.61c-3.38-23.7-6.38-47.27-9-70.88-6.79.16-13.58.32-20.39.38s-13.64.21-20.49.36C1041.4,252.74,1043,276.42,1044.72,300.09Z"/><path class="cls-1" d="M561.54,231.16c-.1.81-.16,1.61-.25,2.42,5.51-.67,11-1.38,16.34-2.08.77-.11,1.48-.2,2.24-.29.83-15,2-29.88,3.79-44.66-5.09.88-10.32,1.81-15.63,2.74C565.44,203.18,563.19,217.13,561.54,231.16Z"/><path class="cls-1" d="M880.71,217.75c-.42-19.06-.1-38.09.73-57.08-27.06,1.92-54.14,3.35-81.15,3.54-19.45.14-38.74,1.11-58,2.56-.38,15.43-.4,30.87-.18,46.28,0,1.55.08,3.1.11,4.65,20.78-.72,41.61-.92,62.45-.15C829.84,218.48,855.3,218.37,880.71,217.75Z"/><path class="cls-1" d="M1035.93,175.64q1.46,18.06,2.7,36.14c7.18-.16,14.35-.32,21.5-.39,6.24,0,12.47-.19,18.7-.33-1.68-16-3.27-32-4.67-48.12-.5-5.71-.94-11.45-1.37-17.18-5.72.38-11.44.76-17.22,1.08-7.56.4-15.12,1-22.69,1.5C1034.11,157.46,1035.2,166.56,1035.93,175.64Z"/><path class="cls-1" d="M1255.86,177c-2.16-16.65-3.67-34.08-8.31-50.36-.44-.84-.89-1.67-1.34-2.5-5.46,1-10.91,1.81-16.37,2.73q8.28,35.33,14.35,71.13c4.64-.61,9.39-1.27,14.1-1.92C1257.47,189.77,1256.68,183.4,1255.86,177Z"/><path class="cls-1" d="M562.15,410.28c4.8-.59,9.62-1.19,14.31-1.81.27-19,.4-37.76.77-56.19.11-4.95.18-9.92.25-14.91-6.49.86-13.1,1.7-19.78,2.46C559.12,363.32,561.6,386.74,562.15,410.28Z"/><path class="cls-1" d="M888.86,394.35c.07-5.53.13-11,.11-16.56-.07-18.22-.94-36.37-2.06-54.5-27.62.76-55.37,1-82.83,0-19.45-.72-38.68-.6-57.87,0,.47,17.26.61,34.53,0,51.78-.24,6.49-.64,13-1.14,19.4,19.85-.63,39.74-.78,59.65-.05C832.53,395.41,860.75,395.14,888.86,394.35Z"/><path class="cls-1" d="M1271.79,300.1l-11.6,1.63c3.63,23.17,7.58,46.27,12.39,69.19,4.35-.63,8.78-1.3,13.18-2A670.82,670.82,0,0,1,1271.79,300.1Z"/><path class="cls-1" d="M1046.12,318.8c1.85,23.15,4,46.38,6.71,69.56,2.44,0,4.87-.11,7.3-.13,13.89-.14,27.76-.48,41.69-1-3.23-23.6-6.36-47.21-9.68-70.79-10.63.33-21.24.59-31.85.69-4.74,0-9.51.16-14.27.26Z"/><path class="cls-1" d="M557.56,499.27c5.06-.61,10.09-1.23,15.05-1.88,2.1-23.73,3.06-47.67,3.55-71.45-4.56.59-9.21,1.15-13.85,1.71C562.23,449.7,561.23,474.73,557.56,499.27Z"/><path class="cls-1" d="M883.72,482.91q3.74-35.52,4.76-71.25c-28.13.79-56.41,1-84.4,0-20.4-.76-40.54-.59-60.65.09-2.57,23.91-6.44,47.7-10.29,71.49,23.79-1,47.68-1.33,71.57-.46C830.83,483.76,857.31,483.6,883.72,482.91Z"/><path class="cls-1" d="M1066.73,476.5c16-.24,32.06-.75,48.21-1.53-4-23.44-7.44-47-10.74-70.54-14.68.59-29.28.95-43.91,1.1-1.77,0-3.55.07-5.32.09C1058.08,429.39,1061.9,453.07,1066.73,476.5Z"/><path class="cls-1" d="M545.8,547.57c7-.88,13.91-1.82,20.67-2.81q2.58-14.75,4.3-29.71c-5.4.7-10.88,1.35-16.38,2A223,223,0,0,1,545.8,547.57Z"/><path class="cls-1" d="M881.73,500.27c-25.91.63-51.91.75-77.65-.19-24.81-.92-49.26-.56-73.7.57-1.45,9.18-2.84,18.38-4.1,27.58,23.74-1.39,47.54-2.05,71.53-1.51,26.73.58,53.51-.05,80.33-1.15Q880.11,512.94,881.73,500.27Z"/><path class="cls-1" d="M590.78,318.13v.79l.78-.1c9.5-1.18,14.46-1.66,22.69-2.45l3.64-.35-.14-10.72c5.25,3.52,8.2,5.51,13.77,9.27l.21.14.25,0c13.87-1.31,20.37-1.92,33.79-3.06l1.62-.14L654.32,299.8c-8.05-7.21-14.66-13.12-24.7-22.07,9-10,15.06-16.68,22.21-24.57l12.59-13.89-1.77.15c-13.17,1.15-19.85,1.79-33.69,3.1l-.22,0-11.49,9.84c0-2.12,0-3.69,0-5.68v-3.06l-.77.07c-10.12,1-14.74,1.43-25.46,2.78l-.6.08v.61c-.22,21.07-.06,34.46.13,51.42C590.64,304.5,590.71,310.85,590.78,318.13Z"/><path class="cls-1" d="M701.67,236.61l-.23-.25-.33,0c-11.72.8-17.66,1.27-29.63,2.28l-1.44.12,1,1.05c12.26,13,18.37,19.47,30.18,31.83-10.62,13.09-16.79,20.69-26.46,32.56L669,311.34l1.63-.13c12.4-1,18.53-1.51,30.41-2.31l.3,0,.19-.23c6.74-8.2,10.08-12.28,16.72-20.39,5.86-7.18,8.76-10.76,14.52-17.87l.39-.48-.42-.45c-6.27-6.57-9.38-9.85-15.54-16.36S707.82,243.17,701.67,236.61Z"/><path class="cls-1" d="M1127.47,298.21l-.14-.77c-.69-4-1.1-6.21-1.73-9.75,5.9,3.71,9.22,5.77,15.4,9.56l.19.11.22,0c13.73-.91,20.4-1.43,34-2.64l1.83-.16-1.48-1.09c-17.56-13-26.11-19.49-43-32.8,7.79-10.24,12.84-16.89,19.21-25.31l9-11.86-1.54.13c-13.46,1-20,1.5-33.4,2.23l-.26,0-.19.18-8.55,8.23-1,.9c-.52-3-.85-4.81-1.41-8.13l-.11-.61-.61,0c-10,.47-14.93.66-25,.95l-.79,0,.13.79c2.75,16.63,4.87,28.41,7.12,40.9,1.58,8.83,3.25,18.08,5.27,29.75l.11.6.6,0c10.41-.4,15.36-.63,25.29-1.2Z"/><path class="cls-1" d="M1199.5,220.16l-.23-.18-.29,0c-12.5,1.29-18.5,1.86-30.59,2.87l-1.67.14,1.27,1.09c14.57,12.37,22,18.45,37.44,30.55-10.36,15.57-15.48,23.27-25.73,38.51l-.81,1.22,1.45-.14c12.51-1.15,18.64-1.77,31.26-3.19l.32,0,.17-.27c5.71-8.35,8.55-12.55,14.24-21,5-7.43,7.52-11.17,12.54-18.64l.37-.55-.53-.4c-8.15-6-12-8.87-19.67-14.74C1210.88,229.21,1207.05,226.21,1199.5,220.16Z"/><path class="cls-1" d="M613,228.09l3.64-.35.62-.12V227c0-2.54,0-4,.1-6.26,5.06,2.09,7.91,3.29,13.33,5.57l.17.07.17,0c13.22-1.25,19.89-1.88,33-3l2.18-.19-1.89-1.11c-14.44-8.48-21.83-12.7-34.59-20,11.59-9.12,18.19-14.46,29-23.19l5.74-4.64-2.44.32c-12.61,1.64-18.81,2.49-32.06,4.34l-.27.1c-4.48,2.87-6.89,4.42-11,7,.11-1.63.19-2.8.33-4.74l.07-.87-7.39,1c-5.82.81-10.42,1.44-17.88,2.65l-.53.09,0,.54c-1.59,18.13-2,27.12-2.49,44.94l0,.81.81-.1C600.52,229.28,605.2,228.83,613,228.09Z"/><path class="cls-1" d="M698.48,220.66l.24,0,.17-.16c6.53-5.71,9.72-8.57,16.27-14.55,5.66-5.2,8.48-7.83,14-13.05l.61-.58-15.71-11.41c-6-4.37-8.91-6.5-14.58-10.67l-.21-.16-.28,0c-11.4,1.26-17.13,1.95-28.55,3.4l-1.77.22,1.45,1c10.83,7.71,16.63,11.8,28.21,20-11.66,10.76-17.8,16.3-30.13,27l-1.6,1.39,2.12-.17C680.67,222,686.63,221.47,698.48,220.66Z"/><path class="cls-1" d="M1111.84,210.65l-1.46-10,14.73,9.15.19.11h.22c13.19-.73,19.72-1.17,33.28-2.23l1.81-.15-1.44-1.11c-8.69-6.68-15-11.62-21.39-16.61-5.76-4.5-11.56-9-19.17-14.9,10.88-13.27,16.56-20.38,28.44-35.56l1-1.32-1.67.2c-13.74,1.62-20.29,2.32-33.45,3.57l-.24,0-.17.16c-4,3.73-6.15,5.7-9.87,9.09-.47-2.75-.77-4.49-1.33-7.58l-.11-.63-.63.06c-10.52.9-15.61,1.29-25.92,2l-.8.05.17.79c4.76,22.42,6.8,35.51,9.88,55.33l1.64,10.49h.61c10-.28,14.92-.46,24.87-.91Z"/><path class="cls-1" d="M1169,150.66c6.1,5.32,11.88,10.33,20.12,17.37-10,15.14-15.2,22.74-26.11,38.2l-.86,1.22,1.48-.13c11.75-.95,17.8-1.5,30.43-2.77l.32,0,.19-.28c5.64-8.26,8.4-12.37,14-21,4.92-7.53,7.3-11.25,12.14-19l.32-.53-.47-.38c-7.42-6.06-11-9-17.83-14.88-6.29-5.35-9.74-8.35-15.24-13.13l-2.48-2.17-.32.05c-12,1.72-17.82,2.49-29.47,3.93l-1.56.2,1.19,1C1160.38,143.19,1164.77,147,1169,150.66Z"/><path class="cls-1" d="M633,403l.25,0c14-1.32,21-2,34.82-3.13l1.65-.14-2.65-2.3c-14.22-12.41-21.78-19-36.13-31.43,9.46-10.31,15.71-17.1,23.22-25.27l12.14-13.2-1.79.16c-13.82,1.21-20.68,1.86-34.35,3.16l-.22,0-.16.14-8.16,6.9-3.34,2.84c0-1.3,0-2.39,0-3.5l0-5.25-1.92.18c-9.65.93-14.49,1.4-24.82,2.71l-.62.07v.62c0,9.39,0,17.25,0,24.58,0,14.7.06,27.38-.09,46.39v.79l.78-.09c9.42-1.17,14.58-1.67,22.4-2.41l4.71-.45v-.64c0-4.12,0-6.39,0-10.14,5.38,3.53,8.41,5.52,14.11,9.28Z"/><path class="cls-1" d="M704.27,324.83l-.22-.23-.32,0c-12.42.83-18.44,1.3-30.22,2.28L672,327l1,1.06c12,12.33,18.26,18.71,31.14,31.69-12,14.73-18.47,22.67-31.76,38.51l-1.07,1.29,1.67-.14c12.76-1.05,19.08-1.52,31.34-2.32h.3l.19-.23c6.73-8,10.15-12.12,17-20.46,5.9-7.21,8.83-10.79,14.58-17.9l.39-.49-.45-.44c-6.56-6.6-9.8-9.87-16.17-16.35S710.58,331.37,704.27,324.83Z"/><path class="cls-1" d="M1142.12,385.76l-1.73-10.56c6,3.67,9.38,5.67,15.8,9.42l.19.11h.21c14.1-1.09,21-1.7,35.35-3.14l1.88-.19-1.56-1.07c-18.38-12.78-27.21-19.35-43.92-32.27,10.74-13.63,16.48-21,26.81-34.35l2.51-3.23-1.6.14c-14,1.25-20.72,1.76-34.11,2.64l-.25,0-.18.18-9.79,9.28-1.46-8.75-.62,0c-10.3.59-15.29.83-25.39,1.23l-.79,0,.12.77c3.69,22.83,5.78,36.64,8.66,55.77l2.36,15.51.62,0c10.13-.5,15.33-.78,26.13-1.5Z"/><path class="cls-1" d="M1217.14,306.64l-.23-.18-.28,0c-12.49,1.42-18.65,2.05-31.39,3.27l-1.69.16,1.31,1.07c14.78,12.18,22.47,18.31,38.22,30.07-10.75,15.77-16.06,23.56-26.68,38.9l-.86,1.25,1.52-.16c12.47-1.28,18.88-2,32.62-3.68l.31-.05.17-.25c5.86-8.46,8.77-12.68,14.63-21.17l13.29-19.4-.58-.39c-8.49-5.83-12.53-8.73-20.35-14.45C1228.89,315.64,1225,312.68,1217.14,306.64Z"/><path class="cls-1" d="M613.44,493.29l.54-.06.08-.54c.55-4.08.83-6.3,1.27-10.25,5.08,3.53,7.89,5.51,13.13,9.24l.21.15.26,0c13.88-1.32,21.19-2,35.56-3.25l1.51-.13-1.07-1.06c-13.39-13.14-20.27-19.64-34.51-32.57,15.3-15.28,22.61-22.78,36.76-37.71l1.26-1.33-1.83.16c-13.91,1.19-20.94,1.85-34.93,3.18l-.75.07-.16.14c-4.88,4-7.53,6.16-12.11,9.9.06-2.91.09-4.79.14-8.1v-.78l-1.58.15c-10.46,1-15.23,1.47-26.05,2.84l-.59.07,0,.6c-.61,28.94-1.23,43.51-5,71.54l-.12.91.9-.12C597.63,494.86,602.76,494.32,613.44,493.29Z"/><path class="cls-1" d="M723.64,429.74c-6.37-6.7-9.57-10-16-16.67l-.22-.24-.32,0c-12.75.81-19,1.29-31.19,2.29l-1.47.12,1,1.06c12.42,12.81,18.65,19.33,30.5,32.08C691.76,464,684.41,471.61,669,487l-1.35,1.34,1.89-.15c12.44-1,18.81-1.55,32-2.43l.25,0,.18-.18c8.26-8.09,12.24-12.09,20.27-20.38,6.77-7,10.08-10.56,16.85-17.92l.44-.48-.44-.47C733.06,439.68,729.93,436.37,723.64,429.74Z"/><path class="cls-1" d="M1276.4,413.91c-8.31-3.79-12.29-5.72-20.27-9.83s-12.11-6.28-20.57-11.27l-.21-.12-.24,0c-13.52,1.68-20,2.43-33,3.79l-1.82.19,1.49,1.07c16.26,11.71,24.42,16.46,40.09,24.39-7.05,10.17-13.26,16.56-21.06,24.61-3.7,3.82-7.91,8.15-12.73,13.44l-2.43,2.66-1.18-.33c-7.85-2.1-16.37-8.52-29.31-18.24-3.15-2.37-6.55-4.93-10.25-7.66,8.33-10.31,13.39-17.39,19.78-26.3,2.54-3.55,5.28-7.36,8.47-11.74l.93-1.25-1.56.15c-14.68,1.46-21.67,2.07-35.61,3.15l-.25,0-.19.17c-4,4-6.18,6.07-10,9.68l-1.71-9-.63,0c-10.57.72-15.73,1-26.35,1.55l-.77,0,.12.77c4.35,28.46,6.48,42.23,11.38,70.46l.11.61.62,0c10.12-.59,15.33-.92,26.17-1.75l.67,0,0-.68c-.19-3.72-.28-5.8-.42-9.17,5.77,3.43,8.94,5.29,14.66,8.58l.18.11.22,0,4.94-.4c11-.84,18.31-1.4,29-7.76l1.43-.84h0l2.89-1.69c10.61-6.21,16-9.28,27.18-15.27a53.35,53.35,0,0,1,12.46-5.78c5.58-2,10.84-3.9,14.28-8.63A166.92,166.92,0,0,1,1276.63,415l.64-.71Z"/><path class="cls-1" d="M709,505.78l-1.43-.53c-5-1.85-7.78-2.86-12.24-4.48l-2-.71h-.15c-12,1.3-17.86,2-29.36,3.49l-3,.39,2.84,1c10.65,3.65,16.18,5.58,26.49,9.18-6.18,3.35-11.2,6.55-16.49,9.93s-10.54,6.73-17.16,10.35l-.33.18-.89-.25c-6.36-1.69-11.66-3.5-16.79-5.25s-10.67-3.64-17.24-5.37c13.12-6.94,20.44-10.72,34.16-17.63l3.69-1.86-4.09.53A121.48,121.48,0,0,1,640,505.8a126.43,126.43,0,0,0-16.32,1.28l-.18.05a80.18,80.18,0,0,0-8,4.16c-2,1.17-4.14,2.37-6.22,3.37,0-.7,0-1.49,0-2.33,0-1.26-.06-2.55,0-3.27l.08-.88-.88.13c-4.17.61-7.2.92-10.13,1.21a143.27,143.27,0,0,0-14.65,2.1l-.51.11-.05.52c-.25,2.94-.44,5.77-.65,8.55-.58,8-1.12,15.52-2.44,23.93l-.16,1,1-.21c10.88-2.27,15.28-3,25.09-4.63l.51-.08.07-.5c.24-1.56.36-2.46.55-3.84,2.48.43,4.76,1,7,1.55,2.41.59,4.9,1.2,7.66,1.64l.11,0,.11,0c7-1.11,12.09-1.61,17.48-2.14,4.31-.43,8.81-.88,14.36-1.67l-.63.35,3.81-.54c7.82-1.12,13.25-1.73,19.54-2.42,3.24-.36,6.68-.75,10.78-1.23l.24-.08a65.62,65.62,0,0,0,9.55-6.32,63.61,63.61,0,0,1,9.32-6.12c6.16-3.16,9.24-4.74,15.31-7.76l1.42-.72-1.5-.56C716.45,508.52,713.65,507.48,709,505.78Z"/><path class="cls-1" d="M1647.49,254.71c-92.92-3.42-185.38,33-272.31,62-100.59,33.56-196.61,89.41-289.56,140.37C945.05,534.13,737.47,688.29,603.43,775.87,346.7,943.63,277.25,945.94,277.25,945.94c112.44,13.51,211.19-39.6,251.25-56.9,81-35,158.2-77.47,237-115.32C878.91,719.2,983.93,656.1,1094.07,600.25c13.5-6.84,27.24-13.87,41.18-21,106.48,29.28,212.89,43.75,326.87,48.37C1604.35,633.4,1838,609.5,1859,450.8,1876.33,320.1,1745.73,258.33,1647.49,254.71Z"/><path class="cls-2" d="M1706.22,572.86c-127.7,51-268.56,52.94-400.76,24.51-41.26-8.88-108.19-24.22-147.52-33.64,163.85-81.31,314.41-185.43,493.5-174.43,34.61,2.13,97.07,24,100.91,81.69C1755.49,518.16,1740.85,559,1706.22,572.86Z"/><path class="cls-2" d="M765.45,773.72l1-.5C887,683.81,1048.8,554.94,1162.55,486.61c84.86-51,172.52-106.81,264.34-140.36,79.36-29,163.78-65.41,248.6-62,66.39,2.68,148.92,37.28,180.92,108.07-21.88-90.81-126.71-134.6-208.92-137.63-92.92-3.42-185.38,33-272.31,62-100.59,33.56-196.61,89.41-289.56,140.37C945.05,534.13,737.47,688.29,603.43,775.87,346.7,943.63,277.25,945.94,277.25,945.94c112.44,13.51,211.19-39.6,251.25-56.9C609.52,854.05,686.7,811.57,765.45,773.72Z"/><path class="cls-1" d="M1586.09,545.47c-95.36,38.1-210.27,50-309,28.78-30.81-6.63-64.86-16.07-94.22-23.1,122.36-60.73,261.78-116.24,395.52-108,25.85,1.58,63,11.1,69.67,41.81C1655.6,519.42,1612,535.13,1586.09,545.47Z"/><path class="cls-2" d="M1503.68,547.87c-75.68,20.19-132.15,20.67-219.84,8.65-27.78-3.8-46.87-13.62-73-19.88,108.86-54,138.06-63.35,257-56,23,1.42,81.22,2.11,85.06,26.19C1555.82,524.81,1527.61,541.48,1503.68,547.87Z"/><path class="cls-1" d="M1437.5,504.6c-23.48-5.17-49.65-4.8-73.64-3-48.26,3.65-97.09,10.55-141.33,29.29,5.45,1.06,10.86,2.39,16.51,3.45,16,3,32.37,2.37,48.6,2.28,26.62-.16,53,3,79.6,1.19,9.74-.67,19.76-1.19,29.67-2.35a224.1,224.1,0,0,0,36.17-8.88c8-3.43,19.48-9.48,17.14-15.39C1448.55,507,1441.63,505.5,1437.5,504.6Z"/><path class="cls-1" d="M266.2,944.75s5.62-1.72,15-5.08c4.72-1.72,10.48-3.53,17-6.12l22.08-8.41c8.11-3,16.68-6.86,25.88-10.62s18.94-7.63,28.73-12.3,20-9.21,30.39-14c10.45-4.58,20.7-10,31-15.18l30.84-15.64c10.2-5.12,19.78-11,29.3-16.22s18.62-10.52,27.3-15.41c8.79-4.73,16.66-9.91,24-14.57,29.42-18.65,49-31.07,49-31.07s-19,13.33-47.58,33.34c-7.13,5-14.79,10.57-23.37,15.71l-26.62,16.71c-9.31,5.7-18.67,12-28.64,17.66l-30.24,17.13c-10.13,5.74-20.19,11.63-30.48,16.72l-30,15.46c-9.63,5.17-19.35,9.38-28.37,13.75S334,935.15,326,938.6s-15.41,6.7-21.93,9.56-12.41,5.09-17.16,7.07c-9.58,3.94-15,5.86-15,5.86l-.24.09a8.66,8.66,0,0,1-5.83-16.3Z"/><path class="cls-1" d="M767.73,663.83S789.52,645,824,619.11c17.12-13.09,37.44-27.86,59.51-43.25,11.07-7.65,22.33-15.82,34.19-23.5l35.75-23.62c12-7.83,24.27-15.33,36.3-22.76s24-14.48,35.56-21.45,23.08-13,33.86-19S1080.27,454,1089.8,449c9.4-5.24,18.62-9.06,26.52-12.86,8-3.65,14.93-6.82,20.66-9.42,11.5-5.14,18.11-7.9,18.11-7.9s-6,4.07-16.5,10.93l-19.09,12.19-11.75,7.38c-4.18,2.55-8.55,5.24-13,8.29-9,6-18.64,12.39-29,19s-21.23,13.66-32.51,20.91-22.7,15.12-34.62,22.62-24,15.21-35.85,23.16l-70.9,45.23c-11.27,7.29-22.36,14-32.83,20.52s-20.33,12.66-29.52,18.26l-25.15,15.16L784.89,654C774,660.24,767.73,663.83,767.73,663.83Z"/><path class="cls-1" d="M1103,33.33l-10.9.33-12.48.39c-4.85.1-10.11.45-16,.73-5.77.54-11.85,1-18.69,2-6.81.8-13.81,1.82-21.08,2.9s-14.74,2.44-22.3,4-15.18,3.3-22.93,5.21c-31,7.45-62.42,13.2-86.27,14.94-11.91.94-21.85,1.17-28.8,1-3.47,0-6.2-.2-8-.25l-2.86-.11,2.86-.08c1.85-.09,4.58-.06,8-.31,6.92-.31,16.79-1.22,28.5-3,23.49-3.35,54.13-11.15,84.27-20.65,7.51-2.41,15.18-4.68,22.82-6.87s15.17-4,22.52-5.6,14.48-3.17,21.13-4.42,13.3-2.42,19.34-3.37c6-.69,11.59-1.42,16.37-1.84l12.5-1.22,10.85-1a8.65,8.65,0,1,1,1.71,17.22Z"/></g></g></svg>