<?xml version="1.0" standalone="no"?>
<!DOCTYPE svg PUBLIC "-//W3C//DTD SVG 20010904//EN"
 "http://www.w3.org/TR/2001/REC-SVG-20010904/DTD/svg10.dtd">
<svg version="1.0" xmlns="http://www.w3.org/2000/svg"
 width="512.000000pt" height="512.000000pt" viewBox="0 0 512.000000 512.000000"
 preserveAspectRatio="xMidYMid meet">

<g transform="translate(0.000000,512.000000) scale(0.100000,-0.100000)"
fill="#000000" stroke="none">
<path d="M2360 5114 c-459 -43 -847 -178 -1217 -423 -542 -358 -937 -929
-1078 -1556 -40 -180 -55 -300 -62 -490 -20 -592 156 -1145 518 -1633 93 -125
366 -397 492 -491 377 -280 765 -436 1247 -502 138 -19 486 -17 635 5 555 79
1030 307 1429 686 191 181 377 428 500 660 139 265 227 542 272 855 22 149 24
497 5 635 -66 482 -222 870 -502 1247 -94 126 -366 399 -491 492 -396 294
-830 463 -1312 510 -100 10 -350 13 -436 5z m650 -1299 c254 -434 470 -804
481 -821 l18 -30 -441 -423 c-403 -386 -443 -421 -449 -400 -4 13 -12 155 -18
314 -6 160 -18 430 -26 600 -8 171 -26 571 -40 890 -13 319 -27 616 -30 660
l-5 80 24 -40 c13 -22 232 -395 486 -830z m-490 -1231 c47 -1015 71 -1540 85
-1824 8 -167 12 -306 11 -308 -2 -2 -15 16 -28 40 -13 24 -147 252 -298 508
-150 256 -365 621 -476 811 l-204 346 98 96 c200 196 787 755 790 752 1 -1 12
-191 22 -421z"/>
</g>
</svg>
