<svg xmlns="http://www.w3.org/2000/svg" width="512" height="512" viewBox="0 0 512 512" version="1.1"><path d="" stroke="none" fill="#080404" fill-rule="evenodd"/><path d="M 77.683 31.250 C 76.099 32.415, 76.002 40.181, 76.242 146 L 76.500 259.500 84.250 260.404 L 92 261.309 92 349.220 C 92 407.907, 92.344 437.774, 93.035 439.066 C 94.052 440.966, 96.928 441, 256 441 C 415.072 441, 417.948 440.966, 418.965 439.066 C 420.410 436.365, 420.410 75.635, 418.965 72.934 C 417.961 71.059, 416.298 71, 364.283 71 L 310.637 71 302.440 63 L 294.244 55 233.122 55 C 162.373 55, 168 54.136, 168 65 L 168 71 151.621 71 L 135.243 71 116.073 50.500 L 96.902 30 88.142 30 C 82.707 30, 78.737 30.474, 77.683 31.250 M 84 145.448 L 84 252 89.430 252 L 94.861 252 124.430 219.333 L 154 186.666 154 145.392 L 154 104.118 123.923 71.809 L 93.847 39.500 88.923 39.198 L 84 38.895 84 145.448 M 177 72.500 L 177 81 219.465 81 C 260.425 81, 261.966 81.069, 262.965 82.934 C 264.371 85.562, 264.271 86.586, 262.429 88.429 C 261.050 89.807, 255.712 90, 218.929 90 L 177 90 177 102 L 177 114 222.053 114 L 267.106 114 270.766 111.513 L 274.426 109.026 238.572 108.763 C 205.681 108.522, 202.626 108.355, 201.614 106.750 C 200.809 105.474, 200.809 104.526, 201.613 103.250 C 202.627 101.642, 206.120 101.459, 244.608 101 L 286.500 100.500 298 92.101 C 304.325 87.482, 309.702 83.530, 309.949 83.319 C 310.195 83.109, 306.154 78.676, 300.968 73.468 L 291.540 64 234.270 64 L 177 64 177 72.500 M 93 73 C 92.297 74.314, 92.260 75.600, 92.894 76.750 C 94.460 79.592, 141.484 126, 142.798 126 C 143.459 126, 144.908 125.092, 146.017 123.983 C 147.856 122.144, 147.907 121.725, 146.592 119.233 C 145.798 117.730, 134.856 106.263, 122.275 93.750 C 103.922 75.497, 98.874 71, 96.735 71 C 95.094 71, 93.659 71.768, 93 73 M 146.572 83.250 C 148.766 85.588, 153.359 90.499, 156.780 94.163 L 163 100.827 163 145.288 L 163 189.750 132 224.048 L 101 258.347 101 281.147 L 101 303.948 116.250 304.224 L 131.500 304.500 131.500 308 L 131.500 311.500 116.250 311.776 L 101 312.052 101 317.026 L 101 322 115.300 322 C 130.425 322, 132 322.440, 132 326.665 C 132 330.261, 129.029 331, 114.566 331 L 101 331 101 335.500 L 101 340 114.566 340 C 129.029 340, 132 340.739, 132 344.335 C 132 348.560, 130.425 349, 115.300 349 L 101 349 101 353.974 L 101 358.948 116.250 359.224 L 131.500 359.500 131.500 363 L 131.500 366.500 116.250 366.776 L 101 367.052 101 372.026 L 101 377 115.300 377 C 130.425 377, 132 377.440, 132 381.665 C 132 385.261, 129.029 386, 114.566 386 L 101 386 101 409.500 L 101 433 256 433 L 411 433 411 256 L 411 79 364.800 79 C 328.867 79, 318.867 79.267, 319.800 80.200 C 321.685 82.085, 321.210 85.463, 318.750 87.670 C 317.512 88.780, 306.004 97.183, 293.174 106.344 L 269.849 123 221.147 123 C 178.686 123, 172.160 122.801, 170.223 121.443 C 168.049 119.921, 168 119.435, 168 99.443 L 168 79 155.292 79 L 142.584 79 146.572 83.250 M 383.571 88.368 C 380.355 91.401, 380 92.260, 380 97 C 380 101.740, 380.355 102.599, 383.571 105.632 C 386.624 108.511, 387.853 109, 392.038 109 C 396.308 109, 397.385 108.549, 400.467 105.467 C 403.549 102.385, 404 101.308, 404 97.038 C 404 92.853, 403.511 91.624, 400.632 88.571 C 397.632 85.390, 396.711 85, 392.203 85 C 387.831 85, 386.657 85.458, 383.571 88.368 M 389.571 94.571 C 388.707 95.436, 388 96.529, 388 97 C 388 98.111, 390.889 101, 392 101 C 393.111 101, 396 98.111, 396 97 C 396 95.889, 393.111 93, 392 93 C 391.529 93, 390.436 93.707, 389.571 94.571 M 93 110 C 92.297 111.314, 92.260 112.600, 92.894 113.750 C 94.460 116.592, 141.484 163, 142.798 163 C 143.459 163, 144.908 162.092, 146.017 160.983 C 147.856 159.144, 147.907 158.725, 146.592 156.233 C 145.798 154.730, 134.856 143.262, 122.275 130.750 C 103.922 112.497, 98.874 108, 96.735 108 C 95.094 108, 93.659 108.768, 93 110 M 281.472 125.217 C 281.203 125.923, 281.099 156.425, 281.241 193 L 281.500 259.500 293 259.500 L 304.500 259.500 304.500 192 L 304.500 124.500 293.231 124.217 C 284.773 124.005, 281.840 124.254, 281.472 125.217 M 309.035 125.934 C 307.605 128.607, 307.605 255.393, 309.035 258.066 C 309.955 259.785, 311.210 260, 320.335 260 C 326.986 260, 331.023 259.577, 331.800 258.800 C 333.535 257.065, 333.535 126.935, 331.800 125.200 C 331.023 124.423, 326.986 124, 320.335 124 C 311.210 124, 309.955 124.215, 309.035 125.934 M 337.200 125.200 C 335.465 126.935, 335.465 257.065, 337.200 258.800 C 337.977 259.577, 342.014 260, 348.665 260 C 357.790 260, 359.045 259.785, 359.965 258.066 C 360.648 256.790, 361 234.295, 361 192 C 361 149.705, 360.648 127.210, 359.965 125.934 C 359.045 124.215, 357.790 124, 348.665 124 C 342.014 124, 337.977 124.423, 337.200 125.200 M 364.472 125.217 C 364.203 125.923, 364.099 156.425, 364.241 193 L 364.500 259.500 376 259.500 L 387.500 259.500 387.500 192 L 387.500 124.500 376.231 124.217 C 367.773 124.005, 364.840 124.254, 364.472 125.217 M 289 192 L 289 252 293 252 L 297 252 297 192 L 297 132 293 132 L 289 132 289 192 M 317 192 L 317 252 320.500 252 L 324 252 324 192 L 324 132 320.500 132 L 317 132 317 192 M 345 192 L 345 252 348.500 252 L 352 252 352 192 L 352 132 348.500 132 L 345 132 345 192 M 372 192 L 372 252 376 252 L 380 252 380 192 L 380 132 376 132 L 372 132 372 192 M 197.200 138.200 C 196.486 138.914, 196 142.356, 196 146.700 L 196 154 191.700 154 C 186.198 154, 185 155.288, 185 161.200 L 185 166 177.700 166 C 169.987 166, 168 166.922, 168 170.500 C 168 174.078, 169.987 175, 177.700 175 L 185 175 185 180.500 L 185 186 177.700 186 C 169.901 186, 168 186.914, 168 190.665 C 168 193.832, 170.812 195, 178.434 195 L 185 195 185 199.500 L 185 204 177.700 204 C 169.901 204, 168 204.914, 168 208.665 C 168 211.832, 170.812 213, 178.434 213 L 185 213 185 217.429 C 185 222.977, 186.890 225, 192.071 225 L 196 225 196 232.300 C 196 239.795, 196.939 242, 200.129 242 C 203.643 242, 205 239.194, 205 231.929 L 205 225 210.500 225 L 216 225 216 232.300 C 216 239.795, 216.939 242, 220.129 242 C 223.643 242, 225 239.194, 225 231.929 L 225 225 229.500 225 L 234 225 234 232.300 C 234 239.795, 234.939 242, 238.129 242 C 241.643 242, 243 239.194, 243 231.929 L 243 225 246.845 225 C 251.833 225, 254 222.629, 254 217.171 L 254 213 260.929 213 C 268.194 213, 271 211.643, 271 208.129 C 271 204.939, 268.795 204, 261.300 204 L 254 204 254 198.500 L 254 193 260.929 193 C 268.194 193, 271 191.643, 271 188.129 C 271 184.939, 268.795 184, 261.300 184 L 254 184 254 179.500 L 254 175 260.929 175 C 268.194 175, 271 173.643, 271 170.129 C 271 166.939, 268.795 166, 261.300 166 L 254 166 254 161.571 C 254 156.023, 252.110 154, 246.929 154 L 243 154 243 147.434 C 243 139.812, 241.832 137, 238.665 137 C 234.914 137, 234 138.901, 234 146.700 L 234 154 228.500 154 L 223 154 223 147.434 C 223 139.812, 221.832 137, 218.665 137 C 214.914 137, 214 138.901, 214 146.700 L 214 154 209.500 154 L 205 154 205 147.434 C 205 143.823, 204.534 139.998, 203.965 138.934 C 202.808 136.772, 199.037 136.363, 197.200 138.200 M 93 147 C 92.299 148.309, 92.261 149.604, 92.889 150.750 C 94.098 152.955, 126.372 185, 127.384 185 C 129.714 185, 132 182.647, 132 180.248 C 132 178.117, 128.664 174.231, 115.716 161.284 C 102.769 148.336, 98.883 145, 96.752 145 C 95.094 145, 93.662 145.763, 93 147 M 194 189.500 L 194 216 219.500 216 L 245 216 245 189.500 L 245 163 219.500 163 L 194 163 194 189.500 M 197.200 167.200 C 196.344 168.056, 196 174.340, 196 189.129 C 196 206.639, 196.244 210.101, 197.571 211.429 C 198.897 212.754, 202.319 213, 219.416 213 C 237.787 213, 239.845 212.828, 241.345 211.171 C 243.762 208.501, 243.836 169.978, 241.429 167.571 C 240.101 166.244, 236.639 166, 219.129 166 C 204.340 166, 198.056 166.344, 197.200 167.200 M 205 189.500 L 205 204 219.500 204 L 234 204 234 189.500 L 234 175 219.500 175 L 205 175 205 189.500 M 93 184 C 91.513 186.779, 92.380 188.029, 103.282 198.831 C 111.404 206.878, 113.099 208.116, 115.600 207.831 C 117.953 207.562, 118.562 206.959, 118.828 204.633 C 119.110 202.160, 117.796 200.406, 109.273 191.883 C 98.796 181.406, 95.296 179.710, 93 184 M 226.994 249.934 C 215.912 253.305, 210.539 260.837, 211.176 272.109 C 211.490 277.674, 212.102 279.682, 214.530 283.130 C 218.618 288.934, 224.729 292, 232.207 292 C 243.550 292, 251.729 284.803, 253.586 273.188 C 255.797 259.358, 240.368 245.866, 226.994 249.934 M 134.200 253.200 C 133.540 253.860, 133 255.435, 133 256.700 C 133 258.502, 132.445 259, 130.434 259 C 126.633 259, 124 260.774, 124 263.335 C 124 266.495, 125.839 268, 129.700 268 C 132.805 268, 133 268.207, 133 271.500 C 133 274.591, 132.700 275, 130.434 275 C 126.633 275, 124 276.774, 124 279.335 C 124 282.495, 125.839 284, 129.700 284 C 132.477 284, 133 284.365, 133 286.300 C 133 290.576, 134.535 291, 150 291 C 165.465 291, 167 290.576, 167 286.300 C 167 284.347, 167.518 284, 170.429 284 C 173.898 284, 177 281.916, 177 279.584 C 177 277.373, 173.464 275, 170.171 275 C 167.214 275, 167 274.764, 167 271.500 C 167 268.181, 167.177 268, 170.429 268 C 173.898 268, 177 265.916, 177 263.584 C 177 261.373, 173.464 259, 170.171 259 C 167.712 259, 167 258.569, 167 257.082 C 167 252.072, 166.768 252, 150.593 252 C 140.110 252, 135.028 252.372, 134.200 253.200 M 226.108 259.716 C 221.897 261.791, 218.534 268.604, 219.516 273.073 C 220.467 277.403, 224.592 281.797, 228.923 283.095 C 232.131 284.056, 233.373 283.929, 237.172 282.248 C 244.422 279.041, 247.078 270.920, 243.040 264.299 C 239.410 258.345, 232.622 256.508, 226.108 259.716 M 142 271 L 142 282 150.500 282 L 159 282 159 271 L 159 260 150.500 260 L 142 260 142 271 M 288.200 268.200 C 287.313 269.087, 287 278.414, 287 303.965 L 287 338.530 299.264 350.765 L 311.529 363 346.229 363 C 379.513 363, 380.972 362.921, 381.965 361.066 C 382.620 359.842, 383 346.727, 383 325.360 L 383 291.588 370.706 279.294 L 358.412 267 323.906 267 C 298.401 267, 289.087 267.313, 288.200 268.200 M 296 305.770 L 296 335.540 305.269 344.770 L 314.538 354 324.966 354 L 335.394 354 323.561 342.020 C 312.104 330.420, 311.777 329.969, 313.234 327.770 C 314.062 326.522, 315.511 325.347, 316.454 325.160 C 317.573 324.939, 323.285 329.896, 332.876 339.410 L 347.583 354 360.792 354 L 374 354 374 324.731 L 374 295.462 364.232 285.731 L 354.464 276 346.537 276 L 338.611 276 349.805 287.346 C 355.962 293.587, 361 299.405, 361 300.275 C 361 302.321, 358.309 305, 356.254 305 C 355.372 305, 348.073 298.475, 340.033 290.500 L 325.417 276 310.708 276 L 296 276 296 305.770 M 158.750 300.080 C 157.263 300.946, 157 302.642, 157 311.350 C 157 317.989, 157.423 322.023, 158.200 322.800 C 159.928 324.528, 251.072 324.528, 252.800 322.800 C 253.577 322.023, 254 317.986, 254 311.335 C 254 302.210, 253.785 300.955, 252.066 300.035 C 249.438 298.629, 161.168 298.671, 158.750 300.080 M 165 311.500 L 165 315 205.500 315 L 246 315 246 311.500 L 246 308 205.500 308 L 165 308 165 311.500 M 158.750 338.080 C 157.263 338.946, 157 340.642, 157 349.350 C 157 355.989, 157.423 360.023, 158.200 360.800 C 159.928 362.528, 251.072 362.528, 252.800 360.800 C 253.577 360.023, 254 355.986, 254 349.335 C 254 340.210, 253.785 338.955, 252.066 338.035 C 249.438 336.629, 161.168 336.671, 158.750 338.080 M 165 349.500 L 165 353 205.500 353 L 246 353 246 349.500 L 246 346 205.500 346 L 165 346 165 349.500 M 237.223 371.242 C 235.230 373.663, 216 410.743, 216 412.164 C 216 415.948, 216.805 416, 275.525 416 L 332.650 416 345.380 395.878 C 354.810 380.971, 358.030 375.074, 357.805 373.128 L 357.500 370.500 297.879 370.242 C 250.947 370.039, 238.038 370.252, 237.223 371.242 M 235.584 392.437 C 231.413 400.377, 228 407.127, 228 407.437 C 228 407.747, 250.387 407.994, 277.750 407.986 L 327.500 407.973 334.500 396.768 C 338.350 390.606, 342.538 383.862, 343.807 381.782 L 346.113 378 294.641 378 L 243.168 378 235.584 392.437 M 325.185 381.684 C 321.757 383.055, 321.896 389.895, 325.400 392.235 C 327.425 393.587, 331.673 393.019, 333.345 391.171 C 338.127 385.887, 332.125 378.908, 325.185 381.684 M 147.200 385.200 C 146.358 386.042, 146 391.644, 146 404 C 146 416.356, 146.358 421.958, 147.200 422.800 C 148.072 423.672, 155.570 424, 174.665 424 C 199.609 424, 200.982 423.903, 201.965 422.066 C 203.328 419.519, 203.328 388.481, 201.965 385.934 C 200.982 384.097, 199.609 384, 174.665 384 C 155.570 384, 148.072 384.328, 147.200 385.200 M 155 396 C 155 399.905, 155.083 400, 158.500 400 C 161.917 400, 162 399.905, 162 396 C 162 392.095, 161.917 392, 158.500 392 C 155.083 392, 155 392.095, 155 396 M 171 396 C 171 399.905, 171.083 400, 174.500 400 C 177.917 400, 178 399.905, 178 396 C 178 392.095, 177.917 392, 174.500 392 C 171.083 392, 171 392.095, 171 396 M 187 396 C 187 399.905, 187.083 400, 190.500 400 C 193.917 400, 194 399.905, 194 396 C 194 392.095, 193.917 392, 190.500 392 C 187.083 392, 187 392.095, 187 396 M 239.595 395.168 C 238.718 396.420, 238 398.145, 238 399 C 238 399.855, 238.718 401.580, 239.595 402.832 C 241.928 406.162, 247.856 405.544, 249.969 401.750 C 251.344 399.280, 251.344 398.720, 249.969 396.250 C 247.856 392.456, 241.928 391.838, 239.595 395.168 M 111.571 406.368 C 108.355 409.401, 108 410.260, 108 415 C 108 419.740, 108.355 420.599, 111.571 423.632 C 114.624 426.511, 115.853 427, 120.038 427 C 124.308 427, 125.385 426.549, 128.467 423.467 C 131.549 420.385, 132 419.308, 132 415.038 C 132 410.853, 131.511 409.624, 128.632 406.571 C 125.632 403.390, 124.711 403, 120.203 403 C 115.831 403, 114.657 403.458, 111.571 406.368 M 383.571 406.368 C 380.355 409.401, 380 410.260, 380 415 C 380 419.740, 380.355 420.599, 383.571 423.632 C 386.624 426.511, 387.853 427, 392.038 427 C 396.308 427, 397.385 426.549, 400.467 423.467 C 403.581 420.352, 404 419.333, 404 414.867 C 404 410.438, 403.572 409.372, 400.600 406.400 C 397.635 403.435, 396.557 403, 392.171 403 C 387.835 403, 386.651 403.464, 383.571 406.368 M 155 412 C 155 415.905, 155.083 416, 158.500 416 C 161.917 416, 162 415.905, 162 412 C 162 408.095, 161.917 408, 158.500 408 C 155.083 408, 155 408.095, 155 412 M 171 412 C 171 415.905, 171.083 416, 174.500 416 C 177.917 416, 178 415.905, 178 412 C 178 408.095, 177.917 408, 174.500 408 C 171.083 408, 171 408.095, 171 412 M 187 412 C 187 415.905, 187.083 416, 190.500 416 C 193.917 416, 194 415.905, 194 412 C 194 408.095, 193.917 408, 190.500 408 C 187.083 408, 187 408.095, 187 412 M 117.571 412.571 C 116.707 413.436, 116 414.529, 116 415 C 116 416.111, 118.889 419, 120 419 C 121.111 419, 124 416.111, 124 415 C 124 413.889, 121.111 411, 120 411 C 119.529 411, 118.436 411.707, 117.571 412.571 M 389.571 412.571 C 388.707 413.436, 388 414.529, 388 415 C 388 415.471, 388.707 416.564, 389.571 417.429 C 390.436 418.293, 391.529 419, 392 419 C 392.471 419, 393.564 418.293, 394.429 417.429 C 395.293 416.564, 396 415.471, 396 415 C 396 414.529, 395.293 413.436, 394.429 412.571 C 393.564 411.707, 392.471 411, 392 411 C 391.529 411, 390.436 411.707, 389.571 412.571" stroke="none" fill="#040404" fill-rule="evenodd"/></svg>