<svg viewBox="0 0 128 128" xml:space="preserve" xmlns="http://www.w3.org/2000/svg" enable-background="new 0 0 128 128"><path d="M76 77.98H12c-3.309 0-6-2.691-6-6v-36c0-3.309 2.691-6 6-6h64c3.309 0 6 2.691 6 6v36c0 3.309-2.691 6-6 6zm-64-44c-1.103 0-2 .897-2 2v36c0 1.103.897 2 2 2h64c1.103 0 2-.897 2-2v-36c0-1.103-.897-2-2-2H12z" fill="#212121" class="fill-505070"></path><path d="M44 92a2 2 0 0 1-2-2V76a2 2 0 0 1 4 0v14a2 2 0 0 1-2 2z" fill="#212121" class="fill-505070"></path><path d="M56 92H32a2 2 0 0 1 0-4h24a2 2 0 0 1 0 4zM116 92h-16c-3.309 0-6-2.691-6-6V36c0-3.309 2.691-6 6-6h16c3.309 0 6 2.691 6 6v50c0 3.309-2.691 6-6 6zm-16-58c-1.103 0-2 .897-2 2v50c0 1.103.897 2 2 2h16c1.103 0 2-.897 2-2V36c0-1.103-.897-2-2-2h-16z" fill="#212121" class="fill-505070"></path><path d="M120 46H96a2 2 0 0 1 0-4h24a2 2 0 0 1 0 4zM108 80c-2.206 0-4-1.794-4-4s1.794-4 4-4 4 1.794 4 4-1.794 4-4 4z" fill="rgba(85, 85, 85, 1)"></path></svg>