<?xml version="1.0" encoding="UTF-8"?>
<svg version="1.1" xmlns="http://www.w3.org/2000/svg" width="152" height="200">
<path d="M0 0 C3.99747145 1.33249048 4.42023703 2.96770638 6.484375 6.59765625 C6.81644958 7.17435059 7.14852417 7.75104492 7.49066162 8.34521484 C8.20837603 9.5929152 8.92219886 10.84286039 9.63256836 12.09475708 C11.53186835 15.43933224 13.46203519 18.76600536 15.390625 22.09375 C15.78072754 22.76817642 16.17083008 23.44260284 16.57275391 24.13746643 C20.08702023 30.19400011 23.76053509 36.14243877 27.5 42.0625 C28.7112109 43.98941151 29.92214407 45.91649762 31.1328125 47.84375 C31.74930664 48.82472656 32.36580078 49.80570313 33.00097656 50.81640625 C33.6606543 51.86699219 34.32033203 52.91757812 35 54 C35.55415588 54.88220215 35.55415588 54.88220215 36.11950684 55.78222656 C38.5008551 59.57725938 40.86764994 63.38085127 43.21899414 67.19454956 C43.98103238 68.42590116 44.74738055 69.6545974 45.51831055 70.88040161 C46.5937763 72.59162999 47.65267143 74.31323811 48.7109375 76.03515625 C49.32243652 77.0187915 49.93393555 78.00242676 50.56396484 79.01586914 C52.21556018 82.44794152 52.84704494 85.19713371 53 89 C50.93092504 91.40138094 49.22947678 93.00096585 46.75 94.875 C45.78525757 95.65025024 45.78525757 95.65025024 44.80102539 96.44116211 C43.49312563 97.48959012 42.17743438 98.52837488 40.85400391 99.55712891 C38.34254672 101.51166037 35.89197631 103.53710251 33.4375 105.5625 C32.56738281 106.26761719 31.69726562 106.97273438 30.80078125 107.69921875 C28.71605518 109.41177615 26.65437008 111.14005526 24.60546875 112.89453125 C24.02676025 113.38945068 23.44805176 113.88437012 22.85180664 114.39428711 C21.73238552 115.35417529 20.61551749 116.31705212 19.50170898 117.28344727 C16.48668297 119.86714721 13.46931738 122.06691172 10 124 C8.50422667 122.50422667 8.70867571 121.10889722 8.51318359 119.02050781 C8.39325546 117.76110382 8.39325546 117.76110382 8.27090454 116.47625732 C8.18924042 115.56112366 8.10757629 114.64598999 8.0234375 113.703125 C7.93637543 112.75624817 7.84931335 111.80937134 7.75961304 110.83380127 C6.96820669 102.033275 6.35796361 93.2242724 5.79507446 84.40664673 C4.52564456 64.57752749 2.96773829 44.77824508 1.27001953 24.98144531 C1.18553055 23.98016098 1.10104156 22.97887665 1.01399231 21.94725037 C0.85697402 20.08683703 0.69698032 18.22667109 0.5332489 16.36683655 C0.0735015 10.89015264 -0.06827454 5.4962735 0 0 Z " fill="#6E3E96" transform="translate(69,1)"/>
<path d="M0 0 C0.99 0.33 1.98 0.66 3 1 C4.09340944 14.73266007 5.05177322 28.45979716 5.76330566 42.21740723 C6.7552784 61.37928491 8.190409 80.5012211 9.67919922 99.63037109 C9.76611023 100.75168427 9.85302124 101.87299744 9.94256592 103.02828979 C10.10722239 105.14749137 10.27336692 107.26657803 10.44122314 109.38552856 C10.51492126 110.33144867 10.58861938 111.27736877 10.66455078 112.25195312 C10.76209152 113.48806335 10.76209152 113.48806335 10.86160278 114.74914551 C10.98950707 116.82934582 11 118.9158712 11 121 C10.01 121 9.02 121 8 121 C7.4440918 120.02281006 7.4440918 120.02281006 6.87695312 119.02587891 C-2.75174493 102.13440829 -12.71045876 85.49909031 -23 69 C-23.50966309 68.18225098 -24.01932617 67.36450195 -24.54443359 66.52197266 C-25.45064103 65.06895393 -26.35741848 63.61629048 -27.26489258 62.1640625 C-28.06917165 60.87696161 -28.87244636 59.58923239 -29.67456055 58.30078125 C-31.54686932 55.29796848 -33.44261706 52.31494102 -35.3828125 49.35546875 C-35.76115234 48.76805908 -36.13949219 48.18064941 -36.52929688 47.57543945 C-37.54434946 46.00016287 -38.57241017 44.43328888 -39.6015625 42.8671875 C-41.26725771 39.45204704 -41.75606717 37.74131304 -41 34 C-38.9282061 31.75883316 -37.06475856 30.04012008 -34.6875 28.1875 C-34.0466748 27.66470459 -33.40584961 27.14190918 -32.74560547 26.60327148 C-31.44479265 25.54463988 -30.13783967 24.49350617 -28.82470703 23.45019531 C-26.39714908 21.52088113 -24.01395058 19.53931101 -21.625 17.5625 C-20.76132812 16.86511719 -19.89765625 16.16773437 -19.0078125 15.44921875 C-16.60701105 13.49428042 -14.23341011 11.51572949 -11.8671875 9.51953125 C-10.4115107 8.30462476 -8.95578165 7.08978086 -7.5 5.875 C-6.80471191 5.28146729 -6.10942383 4.68793457 -5.39306641 4.07641602 C-4.73741699 3.53299561 -4.08176758 2.9895752 -3.40625 2.4296875 C-2.82166016 1.93710449 -2.23707031 1.44452148 -1.63476562 0.93701172 C-1.09529297 0.62779785 -0.55582031 0.31858398 0 0 Z " fill="#6E3E96" transform="translate(71,78)"/>
</svg>
